HIERARCHY
ROOT Hips
{
	OFFSET 0.000000 0.000000 0.000000
	CHANNELS 6 Xposition Yposition Zposition Zrotation Yrotation Xrotation 
	JOINT LeftUpLeg_virtual
	{
		OFFSET 0.000000 0.000000 0.000000
		CHANNELS 3 Zrotation Yrotation Xrotation
		JOINT LeftUpLeg
		{
			OFFSET 8.479694 -4.795517 -0.379053
			CHANNELS 3 Zrotation Yrotation Xrotation
			JOINT LeftLeg
			{
				OFFSET 0.485052 -32.551468 0.112863
				CHANNELS 3 Zrotation Yrotation Xrotation
				JOINT LeftFoot
				{
					OFFSET 0.438033 -32.635670 -3.012641
					CHANNELS 3 Zrotation Yrotation Xrotation
					JOINT LeftToeBase
					{
						OFFSET 0.970169 -13.225353 11.864223
						CHANNELS 3 Zrotation Yrotation Xrotation
						End Site
						{
							OFFSET 0.000000 0.000000 0.000000
						}
					}
				}
			}
		}
	}
	JOINT RightUpLeg_virtual
	{
		OFFSET 0.000000 0.000000 0.000000
		CHANNELS 3 Zrotation Yrotation Xrotation
		JOINT RightUpLeg
		{
			OFFSET -8.479694 -4.795517 -0.379053
			CHANNELS 3 Zrotation Yrotation Xrotation
			JOINT RightLeg
			{
				OFFSET -0.484100 -32.551483 0.112903
				CHANNELS 3 Zrotation Yrotation Xrotation
				JOINT RightFoot
				{
					OFFSET -0.438985 -32.635651 -3.012681
					CHANNELS 3 Zrotation Yrotation Xrotation
					JOINT RightToeBase
					{
						OFFSET -0.970169 -13.225354 11.864223
						CHANNELS 3 Zrotation Yrotation Xrotation
						End Site
						{
							OFFSET 0.000000 0.000000 0.000000
						}
					}
				}
			}
		}
	}
	JOINT Spine_virtual
	{
		OFFSET 0.000000 0.000000 0.000000
		CHANNELS 3 Zrotation Yrotation Xrotation
		JOINT Spine
		{
			OFFSET 0.000000 7.722015 1.166203
			CHANNELS 3 Zrotation Yrotation Xrotation
			JOINT Spine1
			{
				OFFSET 0.000000 12.024086 0.248766
				CHANNELS 3 Zrotation Yrotation Xrotation
				JOINT Spine2
				{
					OFFSET -0.000000 11.503036 -0.491240
					CHANNELS 3 Zrotation Yrotation Xrotation
					JOINT Neck_virtual
					{
						OFFSET 0.000000 0.000000 0.000000
						CHANNELS 3 Zrotation Yrotation Xrotation
						JOINT Neck
						{
							OFFSET 0.000000 18.430687 -3.123054
							CHANNELS 3 Zrotation Yrotation Xrotation
							JOINT Head
							{
								OFFSET -0.000000 9.051071 1.034021
								CHANNELS 3 Zrotation Yrotation Xrotation
								End Site
								{
									OFFSET 0.000000 0.000000 0.000000
								}
							}
						}
					}
					JOINT LeftShoulder_virtual
					{
						OFFSET 0.000000 0.000000 0.000000
						CHANNELS 3 Zrotation Yrotation Xrotation
						JOINT LeftShoulder
						{
							OFFSET 6.197824 13.665230 -4.064723
							CHANNELS 3 Zrotation Yrotation Xrotation
							JOINT LeftArm
							{
								OFFSET 7.778132 -0.187073 -1.709282
								CHANNELS 3 Zrotation Yrotation Xrotation
								JOINT LeftForeArm
								{
									OFFSET 21.954697 0.000000 -2.041093
									CHANNELS 3 Zrotation Yrotation Xrotation
									JOINT LeftHand
									{
										OFFSET 22.992908 0.000000 -0.870901
										CHANNELS 3 Zrotation Yrotation Xrotation
										End Site
										{
											OFFSET 0.000000 0.000000 0.000000
										}
									}
								}
							}
						}
					}
					JOINT RightShoulder_virtual
					{
						OFFSET 0.000000 0.000000 0.000000
						CHANNELS 3 Zrotation Yrotation Xrotation
						JOINT RightShoulder
						{
							OFFSET -6.197824 13.665230 -4.064723
							CHANNELS 3 Zrotation Yrotation Xrotation
							JOINT RightArm
							{
								OFFSET -7.778132 -0.187073 -1.709282
								CHANNELS 3 Zrotation Yrotation Xrotation
								JOINT RightForeArm
								{
									OFFSET -21.954697 0.000000 -2.041093
									CHANNELS 3 Zrotation Yrotation Xrotation
									JOINT RightHand
									{
										OFFSET -22.992908 0.000000 -0.870901
										CHANNELS 3 Zrotation Yrotation Xrotation
										End Site
										{
											OFFSET 0.000000 0.000000 0.000000
										}
									}
								}
							}
						}
					}
				}
			}
		}
	}
}
MOTION
Frames: 13
Frame Time: 0.033333
-22.672043 58.727654 -0.928584 -179.828840 8.511989 -179.865669 2.685402 4.031598 6.405546 6.914080 3.638891 -72.919086 6.938509 2.316686 95.230425 -2.844496 -7.514571 -27.347430 0.000000 0.000000 0.000000 3.548286 4.461217 8.914882 1.498375 -2.843718 -79.223842 3.434172 3.220138 96.382200 -0.555466 2.071018 -21.347164 0.000000 0.000000 0.000000 6.666526 6.522419 8.352195 2.171971 -3.743707 10.883447 0.796854 -5.462975 2.877783 0.006422 0.052216 -0.031676 0.673787 -4.896093 5.618492 -1.494110 -2.466387 -6.326917 0.000000 0.000000 0.000000 2.595614 -3.665163 1.146042 8.945442 -8.876271 0.606067 40.115613 -48.320446 -52.439843 -7.108703 -36.293146 3.851786 0.000000 0.000000 0.000000 -2.047161 -2.461739 1.265468 29.445676 21.094828 6.196679 16.073657 51.972856 -25.919132 -5.837160 59.886532 -7.330392 0.000000 0.000000 0.000000 
-22.664021 58.741646 -0.855761 -179.782423 8.460319 -179.869043 2.561139 4.316579 6.513641 6.956113 3.836850 -73.058832 6.787075 2.253574 95.000411 -2.768379 -7.678044 -27.416180 0.000000 0.000000 0.000000 3.599327 4.873322 9.059583 1.427868 -2.899073 -79.324512 3.403269 3.304814 96.319232 -0.610222 1.912340 -21.412134 0.000000 0.000000 0.000000 6.612020 7.080415 8.449109 2.042636 -4.319333 10.905799 0.775861 -5.462239 2.906606 -0.042863 0.014495 -0.020081 0.675100 -4.789584 5.527556 -1.294287 -2.366324 -6.322364 0.000000 0.000000 0.000000 2.631186 -3.664788 1.063855 7.791747 -9.530225 0.490202 35.877283 -50.029107 -52.089099 -7.362158 -35.853043 3.163964 0.000000 0.000000 0.000000 -2.035831 -2.436048 1.108140 29.700982 20.855972 6.095295 16.074792 51.396105 -25.253339 -6.968440 61.023902 -7.942685 0.000000 0.000000 0.000000 
-22.586891 58.764160 -0.712460 -179.760539 8.471238 -179.842269 2.389477 4.793936 6.612437 7.019365 4.066811 -73.214457 6.602705 2.223934 94.637476 -2.822058 -7.941190 -27.309576 0.000000 0.000000 0.000000 3.621396 5.507871 9.180322 1.394080 -2.888820 -79.419841 3.329149 3.349340 96.184869 -0.694039 1.653501 -21.443435 0.000000 0.000000 0.000000 6.510444 7.703323 8.556419 1.811893 -4.966821 10.882698 0.790603 -5.371032 2.918272 -0.009707 0.035929 -0.022398 0.645034 -4.814815 5.426865 -1.180487 -2.275690 -6.397993 0.000000 0.000000 0.000000 2.580621 -3.532768 0.998358 6.413191 -10.353256 0.372363 31.170118 -52.112892 -51.141550 -7.366671 -34.943111 2.359967 0.000000 0.000000 0.000000 -2.056339 -2.326285 1.032811 29.720923 20.568727 5.639775 16.546091 51.005793 -24.304668 -8.064302 62.707072 -8.500725 0.000000 0.000000 0.000000 
-22.485104 58.784878 -0.558078 -179.707823 8.368504 -179.839468 2.215967 5.248930 6.547209 7.138634 4.203688 -73.365753 6.446786 2.254482 94.376767 -2.969638 -8.217023 -27.034073 0.000000 0.000000 0.000000 3.621273 6.061042 9.285617 1.426654 -2.887373 -79.506325 3.245448 3.366004 96.065238 -0.759715 1.392491 -21.395211 0.000000 0.000000 0.000000 6.512616 8.385196 8.680176 1.521070 -5.565569 10.819467 0.871741 -5.306951 2.928142 -0.074038 0.012581 -0.026383 0.715680 -4.709771 5.359144 -1.063230 -2.467790 -6.531134 0.000000 0.000000 0.000000 2.617452 -3.458818 0.979991 4.897027 -11.334413 0.311828 25.559169 -54.558424 -48.913512 -7.223746 -33.646137 1.625189 0.000000 0.000000 0.000000 -1.993805 -2.214891 0.901431 29.635788 20.148597 5.188525 17.243207 50.416396 -23.289593 -9.325343 64.840072 -9.269741 0.000000 0.000000 0.000000 
-22.397131 58.800785 -0.437895 -179.707154 8.211705 -179.828116 2.029109 5.611001 6.372278 7.222987 4.281716 -73.470501 6.348593 2.299383 94.246522 -3.177863 -8.436528 -26.734247 0.000000 0.000000 0.000000 3.556002 6.401875 9.347332 1.468588 -2.887240 -79.623538 3.187397 3.398157 96.019476 -0.795010 1.178121 -21.227388 0.000000 0.000000 0.000000 6.419142 8.608021 8.709841 1.172335 -5.993967 10.684680 0.846955 -5.097685 2.955037 -0.057957 0.034335 -0.017644 0.760511 -4.432026 5.319147 -1.110684 -2.309673 -6.720054 0.000000 0.000000 0.000000 2.684472 -3.258533 1.021215 3.317018 -12.341189 0.363918 18.299526 -57.123327 -44.469241 -6.889018 -32.401116 1.017240 0.000000 0.000000 0.000000 -1.866855 -2.062692 0.907922 29.159918 19.568050 4.576267 18.479488 49.882238 -22.062869 -10.781349 67.278361 -10.354046 0.000000 0.000000 0.000000 
-22.339436 58.815010 -0.367713 -179.674232 8.003447 -179.832638 1.884981 5.748193 6.283646 7.293882 4.476873 -73.511919 6.295072 2.348737 94.217877 -3.445329 -8.608957 -26.575713 0.000000 0.000000 0.000000 3.493033 6.562666 9.423361 1.540055 -2.907843 -79.702577 3.157645 3.422759 96.016682 -0.796293 1.020795 -21.080998 0.000000 0.000000 0.000000 6.342221 8.785468 8.719466 0.843575 -6.248869 10.469682 0.906203 -4.850367 3.026471 -0.059590 0.041430 -0.009357 0.791446 -4.180515 5.288074 -1.207930 -2.356699 -7.012849 0.000000 0.000000 0.000000 2.727048 -3.077025 1.132383 1.682768 -13.266215 0.507983 9.040554 -59.244610 -37.363430 -6.491859 -31.717780 0.828958 0.000000 0.000000 0.000000 -1.802434 -1.811256 0.851019 28.223086 18.866157 3.848107 20.393306 48.894452 -20.642976 -12.800266 70.244548 -12.146153 0.000000 0.000000 0.000000 
-22.346416 58.841988 -0.351100 -179.658537 7.681301 -179.836518 1.747337 5.720117 6.326320 7.259782 4.766306 -73.686908 6.288026 2.417705 94.207686 -3.755098 -8.714666 -26.453925 0.000000 0.000000 0.000000 3.411347 6.537987 9.500559 1.596167 -2.951743 -79.797332 3.170140 3.473151 96.006259 -0.757701 0.931706 -20.959849 0.000000 0.000000 0.000000 6.199977 8.750915 8.723962 0.514460 -6.348180 10.157714 0.976157 -4.541102 3.136027 -0.062348 0.020539 -0.022779 0.897326 -3.880423 5.351060 -1.214136 -2.538807 -7.442359 0.000000 0.000000 0.000000 2.781002 -2.710556 1.322458 0.070962 -13.865626 0.624081 -2.460663 -60.332284 -27.631091 -5.753185 -32.139377 0.702381 0.000000 0.000000 0.000000 -1.719502 -1.446900 0.901268 26.781349 18.212848 3.164132 22.459491 47.628777 -19.593349 -15.442503 73.948402 -14.696702 0.000000 0.000000 0.000000 
-22.418365 58.886623 -0.371848 -179.655709 7.240835 -179.833485 1.604737 5.534215 6.385020 7.141262 5.076625 -73.812598 6.318016 2.494494 94.185986 -4.102824 -8.761051 -26.306450 0.000000 0.000000 0.000000 3.300035 6.336788 9.593242 1.638020 -3.074096 -79.863011 3.215379 3.530697 95.966542 -0.683626 0.910158 -20.874260 0.000000 0.000000 0.000000 6.044939 8.592661 8.721466 0.223737 -6.266633 9.783231 1.074085 -4.154934 3.331538 -0.024937 0.025596 -0.008669 0.959350 -3.544319 5.494202 -1.212604 -2.721811 -7.964179 0.000000 0.000000 0.000000 2.826096 -2.368253 1.555972 -1.660343 -14.167621 0.957287 -14.217145 -59.955558 -17.320366 -4.875941 -33.971237 0.961609 0.000000 0.000000 0.000000 -1.676428 -0.996348 1.026696 24.804967 17.257219 2.314872 24.982288 46.341553 -18.425730 -21.298903 78.294568 -20.804432 0.000000 0.000000 0.000000 
-22.557524 58.942886 -0.419463 -179.669752 6.628953 -179.828922 1.458829 5.108608 6.454460 6.978302 5.347377 -74.013999 6.386888 2.572554 94.227056 -4.458465 -8.741034 -26.103332 0.000000 0.000000 0.000000 3.159756 5.879321 9.674897 1.684524 -3.307691 -79.898706 3.285394 3.574496 95.879197 -0.574084 0.976739 -20.802255 0.000000 0.000000 0.000000 5.881948 8.270878 8.664245 -0.042421 -6.018888 9.363769 1.179393 -3.713204 3.596714 -0.047720 0.041039 -0.000512 1.036444 -3.061217 5.747553 -1.097809 -2.981005 -8.624167 0.000000 0.000000 0.000000 2.941361 -2.010074 1.882860 -3.327050 -14.123276 1.181011 -25.409996 -58.018939 -7.433689 -3.771736 -37.053325 1.426974 0.000000 0.000000 0.000000 -1.619812 -0.657228 1.258273 22.510777 16.342978 1.547728 27.406096 45.065995 -17.841620 -36.915752 83.083575 -36.563963 0.000000 0.000000 0.000000 
-22.706938 58.986992 -0.491165 -179.702127 5.836127 -179.782983 1.354156 4.389011 6.560414 6.847693 5.537721 -74.291879 6.488429 2.595445 94.326313 -4.801381 -8.641465 -25.735407 0.000000 0.000000 0.000000 3.008860 5.124493 9.681432 1.804687 -3.640718 -79.917482 3.350643 3.537733 95.782960 -0.437477 1.134496 -20.676439 0.000000 0.000000 0.000000 5.673257 7.604967 8.456133 -0.377641 -5.727950 8.934449 1.238080 -3.197964 3.966256 -0.054466 0.111923 -0.001369 1.137015 -2.643991 6.102389 -0.795810 -3.270908 -9.363323 0.000000 0.000000 0.000000 3.016325 -1.607069 2.212263 -5.040813 -13.681308 1.416538 -34.877760 -54.592193 0.995902 -2.423206 -41.124955 1.979521 0.000000 0.000000 0.000000 -1.551055 -0.244713 1.605650 20.073627 15.403465 0.668935 29.641754 43.992320 -17.709958 -93.843043 86.052904 -93.881135 0.000000 0.000000 0.000000 
-22.819267 59.004341 -0.555007 -179.763544 4.871646 -179.870573 1.262614 3.462237 6.678630 6.778383 5.609441 -74.510028 6.621494 2.561262 94.522407 -5.160443 -8.569142 -25.422623 0.000000 0.000000 0.000000 2.853378 4.137281 9.664399 1.981301 -4.045217 -79.832002 3.390651 3.442180 95.753563 -0.313544 1.315009 -20.636768 0.000000 0.000000 0.000000 5.499866 6.876328 8.234028 -0.705720 -5.174782 8.581287 1.327621 -2.875041 4.345818 -0.028261 0.009172 0.018043 1.176830 -2.245079 6.540450 -0.339022 -3.574166 -10.135331 0.000000 0.000000 0.000000 3.056248 -1.288564 2.640642 -6.630963 -12.974872 1.682682 -42.093845 -49.911201 7.494341 -1.006503 -45.904103 2.797599 0.000000 0.000000 0.000000 -1.588499 0.194190 1.927359 18.053754 14.411136 0.103446 31.667236 43.418116 -17.829263 -149.012557 82.693756 -149.510368 0.000000 0.000000 0.000000 
-22.882835 58.982166 -0.569455 -179.826382 3.859498 -179.923507 1.134554 2.427097 6.756421 6.750265 5.650985 -74.704115 6.801978 2.538938 94.710320 -5.550560 -8.578745 -25.192898 0.000000 0.000000 0.000000 2.644483 3.070988 9.599856 2.213145 -4.509223 -79.787784 3.402355 3.324779 95.739704 -0.229820 1.489673 -20.649497 0.000000 0.000000 0.000000 5.246419 5.844109 7.963388 -1.114598 -4.711896 8.184612 1.363301 -2.381408 4.784019 -0.036251 0.096451 0.023134 1.297516 -1.806094 7.036662 0.365730 -3.897665 -10.849271 0.000000 0.000000 0.000000 3.100877 -0.877619 3.135602 -7.755526 -12.014307 1.903233 -47.305023 -44.562599 12.470658 0.651327 -51.265084 3.603378 0.000000 0.000000 0.000000 -1.523384 0.608492 2.326438 16.372358 13.477791 -0.455341 33.039083 43.368358 -18.082878 -163.481835 77.602089 -164.430876 0.000000 0.000000 0.000000 
-22.924858 58.924480 -0.528337 -179.826423 2.774805 -179.858688 1.014748 1.423661 6.748199 6.714687 5.639529 -75.032975 7.007704 2.466071 94.859416 -5.941957 -8.652204 -24.986586 0.000000 0.000000 0.000000 2.374116 2.058134 9.514655 2.531626 -5.064264 -79.891965 3.383361 3.196704 95.703286 -0.190964 1.631545 -20.776329 0.000000 0.000000 0.000000 5.059510 5.020131 7.680149 -1.488002 -4.056617 7.655390 1.410076 -2.113641 5.146472 -0.037504 0.016786 -0.005184 1.316518 -1.433119 7.600495 1.221670 -4.285574 -11.528433 0.000000 0.000000 0.000000 3.103258 -0.568489 3.623428 -8.489910 -11.018890 2.106611 -50.562893 -38.994288 15.934676 2.432268 -57.326338 4.469979 0.000000 0.000000 0.000000 -1.565440 1.108292 2.718831 15.204336 12.595190 -1.029180 33.731593 43.555952 -18.321557 -169.317575 72.830116 -170.668136 0.000000 0.000000 0.000000 
